<svg width="49" height="33" viewBox="0 0 49 33" fill="none" xmlns="http://www.w3.org/2000/svg">
<path d="M24.1857 20.7459C24.369 20.8941 24.631 20.8941 24.8143 20.7459L42.8859 6.13886C43.2525 5.84254 43.043 5.25 42.5716 5.25H6.42841C5.95703 5.25 5.74751 5.84254 6.1141 6.13886L24.1857 20.7459Z" fill="black"/>
<path d="M19.6867 20.252C19.8696 20.1048 20.1304 20.1048 20.3133 20.252L31.0181 28.8604C31.3859 29.1562 31.1767 29.75 30.7047 29.75H9.29527C8.82327 29.75 8.61411 29.1562 8.98193 28.8604L19.6867 20.252Z" fill="black"/>
<path d="M28.6867 20.252C28.8696 20.1048 29.1304 20.1048 29.3133 20.252L40.0181 28.8604C40.3859 29.1562 40.1767 29.75 39.7047 29.75H18.2953C17.8233 29.75 17.6141 29.1562 17.9819 28.8604L28.6867 20.252Z" fill="black"/>
<path d="M18.4759 18.8981C18.7393 18.6981 18.7393 18.3019 18.4759 18.1019L5.55246 8.28429C5.22324 8.03419 4.75 8.26899 4.75 8.68243L4.75 28.3176C4.75 28.731 5.22324 28.9658 5.55246 28.7157L18.4759 18.8981Z" fill="black"/>
<path d="M30.4966 19.3923C30.2432 19.1921 30.2432 18.8079 30.4966 18.6077L43.44 8.38159C43.7679 8.12256 44.25 8.35608 44.25 8.77392V29.2261C44.25 29.6439 43.7679 29.8774 43.44 29.6184L30.4966 19.3923Z" fill="black"/>
</svg>
